<?xml version="1.0" encoding="UTF-8" standalone="no"?>
<!-- Created with Inkscape (http://www.inkscape.org/) -->

<svg
   version="1.1"
   id="svg9"
   width="345.60001"
   height="345.60001"
   viewBox="0 0 345.60001 345.60001"
   sodipodi:docname="logo.svg"
   inkscape:version="1.1.1 (3bf5ae0d25, 2021-09-20)"
   xmlns:inkscape="http://www.inkscape.org/namespaces/inkscape"
   xmlns:sodipodi="http://sodipodi.sourceforge.net/DTD/sodipodi-0.dtd"
   xmlns="http://www.w3.org/2000/svg"
   xmlns:svg="http://www.w3.org/2000/svg">
  <defs
     id="defs13">
    <filter
       inkscape:label="Colorize"
       inkscape:menu="Fill and Transparency"
       inkscape:menu-tooltip="Convert to a colorizable transparent positive or negative"
       style="color-interpolation-filters:sRGB;"
       id="filter16426"
       x="0"
       y="0"
       width="1"
       height="1">
      <feColorMatrix
         type="luminanceToAlpha"
         result="fbSourceGraphic"
         id="feColorMatrix16418" />
      <feFlood
         flood-color="rgb(134,39,24)"
         result="result1"
         flood-opacity="1"
         id="feFlood16420" />
      <feComposite
         operator="out"
         in2="fbSourceGraphic"
         result="result2"
         id="feComposite16422" />
      <feComposite
         operator="in"
         in2="SourceGraphic"
         id="feComposite16424"
         result="fbSourceGraphic" />
      <feColorMatrix
         result="fbSourceGraphicAlpha"
         in="fbSourceGraphic"
         values="0 0 0 -1 0 0 0 0 -1 0 0 0 0 -1 0 0 0 0 1 0"
         id="feColorMatrix16446" />
      <feComposite
         in2="fbSourceGraphic"
         id="feComposite16448"
         operator="arithmetic"
         k1="0"
         k2="1"
         result="composite1"
         in="fbSourceGraphic" />
      <feColorMatrix
         id="feColorMatrix16450"
         in="composite1"
         values="1"
         type="saturate"
         result="colormatrix1" />
      <feFlood
         id="feFlood16452"
         flood-opacity="1"
         flood-color="rgb(0,0,0)"
         result="flood1" />
      <feBlend
         in2="colormatrix1"
         id="feBlend16454"
         in="flood1"
         mode="multiply"
         result="blend1" />
      <feBlend
         in2="blend1"
         id="feBlend16456"
         mode="screen"
         result="blend2" />
      <feColorMatrix
         id="feColorMatrix16458"
         in="blend2"
         values="1"
         type="saturate"
         result="colormatrix2" />
      <feComposite
         in2="fbSourceGraphic"
         id="feComposite16460"
         in="colormatrix2"
         operator="in"
         k2="1"
         result="composite2" />
    </filter>
  </defs>
  <sodipodi:namedview
     id="namedview11"
     pagecolor="#505050"
     bordercolor="#eeeeee"
     borderopacity="1"
     inkscape:pageshadow="0"
     inkscape:pageopacity="0"
     inkscape:pagecheckerboard="true"
     showgrid="false"
     inkscape:zoom="0.90509668"
     inkscape:cx="29.27864"
     inkscape:cy="233.67669"
     inkscape:window-width="1920"
     inkscape:window-height="1009"
     inkscape:window-x="1358"
     inkscape:window-y="-8"
     inkscape:window-maximized="1"
     inkscape:current-layer="g15" />
  <g
     inkscape:groupmode="layer"
     inkscape:label="Image"
     id="g15">
    <g
       id="g207"
       transform="translate(-0.3906294)"
       style="filter:url(#filter16426)">
      <path
         style="fill:#fefefe;stroke-width:0.32"
         d="M 0,172.8 V 0 H 172.8 345.60001 V 172.8 345.60001 H 172.8 0 Z m 295.4092,124.85925 c 1.84629,-0.91839 2.36248,-1.47836 2.98238,-3.23536 0.96554,-2.73661 0.45507,-4.65136 -1.67328,-6.27648 l -1.45032,-1.1074 h -10.49032 -10.49031 l 2.17332,-4.4 c 3.22177,-6.52262 7.96496,-17.55626 10.42042,-24.24 0.58192,-1.584 1.37837,-3.59089 1.76988,-4.45975 0.63493,-1.40906 0.68855,-1.8931 0.49621,-4.48 -0.25449,-3.42271 -1.04563,-5.34206 -2.62294,-6.36335 -0.59197,-0.3833 -1.07809,-0.84906 -1.08027,-1.03504 -0.008,-0.6494 -15.364,-6.75312 -23.36396,-9.28651 -1.496,-0.47374 -2.83426,-0.96346 -2.97391,-1.08826 -0.13965,-0.12481 0.69673,-1.72545 1.85862,-3.557 4.13838,-6.52353 8.43042,-15.73238 10.85995,-23.30071 3.74672,-11.67158 5.17587,-21.85799 4.90563,-34.96538 -0.0865,-4.1932 -0.0988,-7.62401 -0.0274,-7.62401 0.12003,0 8.63741,5.55371 11.93708,7.78351 4.96183,3.35303 11.1047,7.3701 13.44,8.78896 4.5699,2.77655 7.39388,3.26352 10.47435,1.80622 1.85646,-0.87824 2.39838,-1.68932 2.94113,-4.40193 0.362,-1.80923 0.91634,-4.00573 1.83143,-7.25676 0.42109,-1.496 1.68204,-6.90563 2.80211,-12.0214 1.12007,-5.11578 2.40244,-10.51578 2.84967,-12 0.44723,-1.48423 0.97222,-3.30574 1.16665,-4.04779 0.30436,-1.16156 0.55101,-1.43656 1.7736,-1.97737 2.00871,-0.88855 4.48074,-3.32312 5.51716,-5.43358 0.7664,-1.5606 0.8839,-2.1827 0.8839,-4.67986 0,-2.49715 -0.1175,-3.11925 -0.8839,-4.67985 -1.04295,-2.12374 -3.49159,-4.52634 -5.6066,-5.50116 -2.1503,-0.9911 -6.62869,-0.9911 -8.77901,0 -2.115,0.97482 -4.56365,3.37742 -5.6066,5.50116 -0.76644,1.5607 -0.88389,2.18263 -0.88389,4.68057 0,2.44018 0.12425,3.13178 0.8125,4.52249 0.73356,1.48225 0.77505,1.76201 0.42699,2.87928 -1.49339,4.79373 -3.24111,11.69772 -4.73998,18.72428 -2.1469,10.06443 -2.09886,9.87323 -2.48109,9.87323 -0.17171,0 -2.8561,-1.71131 -5.96531,-3.80291 -12.50272,-8.41074 -20.19536,-13.308 -23.57311,-15.00705 l -1.92,-0.96578 -1.06159,-3.47213 C 266.3081,122.7446 253.81092,104.35533 238.34685,91.94646 219.43277,76.76918 196.86541,68.800002 172.8,68.800002 c -24.0654,0 -46.63276,7.969178 -65.54684,23.146458 -10.60414,8.5091 -20.496876,20.59081 -26.47885,32.33783 -1.217869,2.39157 -2.306727,4.34998 -2.419687,4.35201 -0.112957,0.002 -1.221606,-1.19329 -2.463664,-2.65627 -2.685667,-3.16339 -8.563872,-8.91126 -13.010957,-12.72247 C 59.676565,110.51216 49.230341,102.30542 47.023,100.8 c -0.645159,-0.44 -1.782285,-1.223751 -2.526944,-1.741671 -1.852951,-1.288749 -4.510935,-1.505488 -6.478234,-0.528256 -2.502567,1.243117 -3.105082,1.972447 -4.4108,5.339207 -0.676333,1.7439 -1.94696,4.75472 -2.823617,6.69072 -4.702238,10.38438 -8.322755,22.57425 -10.138562,34.13539 -0.15094,0.96103 -0.434186,1.32164 -1.553131,1.97739 -1.797785,1.05357 -3.937999,3.40448 -4.79861,5.27101 -0.985129,2.13659 -0.982119,6.62214 0.0059,8.76573 0.974824,2.11499 3.377424,4.56364 5.501163,5.60659 1.560594,0.7664 2.1827,0.88389 4.679854,0.88389 2.497154,0 3.119259,-0.11749 4.679852,-0.88389 2.12374,-1.04295 4.52634,-3.4916 5.501162,-5.60659 0.552007,-1.19764 0.696087,-2.11041 0.69737,-4.41794 0.0016,-2.62733 -0.09429,-3.09439 -0.99065,-4.8324 l -0.992268,-1.92397 0.751856,-4.4476 c 0.955008,-5.64934 2.996345,-13.90233 4.661869,-18.84761 1.241584,-3.68651 4.20136,-11.25722 4.52919,-11.58505 0.351706,-0.3517 10.156615,7.51695 16.016551,12.85363 2.578195,2.34797 10.438435,11.02908 13.106951,14.47574 0.59471,0.76813 0.58815,0.8334 -0.550221,5.47654 -2.268205,9.25144 -3.083043,15.91852 -3.088234,25.26825 -0.0063,11.42713 1.548506,21.41979 5.015111,32.2309 2.389069,7.45065 6.71777,16.71499 10.840042,23.2 1.1747,1.848 2.196963,3.51517 2.271693,3.70484 0.07473,0.18966 -2.138013,2.00832 -4.917204,4.04146 -2.779187,2.03314 -6.637069,4.94801 -8.573069,6.47748 -4.523824,3.57388 -8.606151,6.63929 -11.891274,8.92911 l -2.611273,1.82012 -2.408065,-3.27171 c -2.423084,-3.29212 -7.447398,-12.50438 -10.788595,-19.7813 -1.813847,-3.95044 -3.741776,-7.27891 -5.073671,-8.75941 -1.093369,-1.21537 -2.5388,-1.80059 -4.447235,-1.80059 -2.220035,0 -2.712438,0.33994 -15.96147,11.01944 -6.028464,4.8593 -9.700235,8.07207 -9.478595,8.29372 0.09539,0.0954 -0.147772,0.83697 -0.540365,1.64795 -0.9657208,1.99492 -0.801227,4.6794 0.397753,6.49118 1.511458,2.28397 5.067875,3.29434 7.709997,2.19039 0.575659,-0.24053 2.409532,-1.64453 4.075274,-3.12 4.000044,-3.54315 11.370536,-9.35612 11.66946,-9.2035 0.130144,0.0665 1.816852,3.21682 3.74824,7.00082 6.500746,12.73634 13.187729,21.77758 17.42954,23.56588 1.401488,0.59085 4.017431,0.54636 5.460557,-0.0929 0.654346,-0.28984 1.365219,-0.56444 1.579719,-0.61022 0.594956,-0.12697 11.691238,-8.11149 15.130003,-10.88705 3.786141,-3.05594 11.779969,-9.04496 15.267444,-11.43845 l 2.62744,-1.80324 3.934896,3.91297 c 19.61514,19.50587 45.82996,30.31298 73.53022,30.31298 27.49063,0 53.48309,-10.62812 73.14084,-29.90672 l 3.68958,-3.61842 1.34479,0.30058 c 5.10354,1.14069 23.23905,7.44624 23.73793,8.25345 0.29383,0.47542 -3.32864,9.80184 -7.58606,19.53111 -1.58667,3.62592 -4.66126,9.91863 -7.88242,16.13282 -1.79734,3.46737 -1.98319,4.58719 -1.15222,6.94241 0.57037,1.61661 1.81681,3.0556 3.18757,3.68001 0.77792,0.35436 3.96431,0.42283 16.8,0.36103 l 15.84,-0.0763 z M 168.24231,268.13858 c -14.58783,-1.00866 -29.54826,-5.36646 -41.34649,-12.04375 -4.11577,-2.32936 -10.76833,-6.79436 -14.25582,-9.56809 -3.49414,-2.77903 -10.78253,-10.06662 -13.568208,-13.56673 -2.774426,-3.48597 -7.63234,-10.77251 -9.920461,-14.88 C 81.911362,205.08324 77.381145,187.65546 77.381145,172.8 c 0,-14.85545 4.530217,-32.28323 11.770186,-45.28 2.288121,-4.10749 7.146035,-11.39403 9.920461,-14.88 2.783298,-3.49712 10.071088,-10.78491 13.568208,-13.568208 3.48597,-2.774426 10.77251,-7.63234 14.88,-9.920461 6.28704,-3.50225 15.02855,-6.90466 22.56,-8.780897 15.6715,-3.904086 29.24881,-3.958333 44.7672,-0.178857 3.58366,0.872793 10.75921,3.126886 11.52736,3.621149 0.36999,0.23807 -2.71006,8.555856 -16.55656,44.711464 l -17.01113,44.41898 21.43657,42.11785 c 11.79011,23.16482 21.43657,42.26649 21.43657,42.44816 0,0.18167 -1.62,1.05049 -3.6,1.93071 -12.45771,5.53813 -23.27079,8.05552 -38,8.84677 -1.144,0.0615 -3.77097,-0.005 -5.8377,-0.14808 z M 99.046006,88.300553 c 4.451244,-4.486717 9.097704,-8.035911 14.713994,-11.239271 7.50996,-4.283446 12.11635,-6.452365 16.88,-7.947958 2.42,-0.75978 4.39788,-1.537095 4.39529,-1.72737 -0.007,-0.506262 -1.11354,-3.970874 -1.34101,-4.198339 -0.10673,-0.106733 -2.11561,0.409782 -4.46417,1.147814 -7.17917,2.256045 -20.47435,9.263367 -26.38008,13.903821 -3.275499,2.573741 -10.370027,9.349812 -10.370027,9.904541 0,0.328176 2.883513,3.376212 3.193974,3.376212 0.09792,0 1.615331,-1.448752 3.372029,-3.21945 z m -6.4,-10.56 c 4.451242,-4.486717 9.097704,-8.035911 14.713994,-11.239271 7.50996,-4.283447 12.11635,-6.452365 16.88,-7.947959 2.42,-0.759779 4.39788,-1.537094 4.39529,-1.727369 -0.007,-0.506263 -1.11354,-3.970874 -1.34101,-4.19834 -0.10673,-0.106732 -2.11561,0.409783 -4.46417,1.147815 -7.17917,2.256045 -20.47435,9.263366 -26.380075,13.903821 -3.275504,2.573741 -10.370033,9.349811 -10.370033,9.904541 0,0.328176 2.883514,3.376211 3.193975,3.376211 0.09792,0 1.615331,-1.448752 3.372029,-3.219449 z M 234.52196,75.318636 c 0.93478,-0.654743 2.59746,-4.11776 2.59779,-5.410663 6.4e-4,-1.965069 -4.86667,-5.718906 -11.57158,-8.924637 -8.79969,-4.20728 -20.00203,-6.945261 -26.57342,-6.494848 -3.0589,0.209664 -3.86251,0.795725 -5.21083,3.800176 -0.83271,1.85553 -0.84031,1.928131 -0.29006,2.768419 2.1914,3.346474 9.68445,7.929962 18.04615,11.038801 2.78785,1.036512 10.99282,3.210611 13.28,3.518848 0.528,0.07116 2.76395,0.150953 4.96879,0.177325 3.24236,0.03878 4.15112,-0.05173 4.75316,-0.473421 z M 93.920003,61.304994 C 100.181,56.481656 112.06916,50.186779 119.04,48.003749 c 2.376,-0.744084 4.35004,-1.37936 4.38675,-1.411728 0.18084,-0.159437 -1.50389,-4.825565 -1.72758,-4.784839 -0.14255,0.02595 -2.20317,0.655277 -4.57917,1.398512 -7.4651,2.335146 -20.005127,9.058519 -26.889639,14.416957 -2.224365,1.731296 -5.340701,4.563332 -6.999133,6.360608 l -2.989494,3.239773 1.879136,1.742141 1.879132,1.742141 3.200001,-3.345296 c 1.76,-1.839911 4.784,-4.565571 6.72,-6.057024 z"
         id="path223" />
      <path
         style="fill:#d0d0d0;stroke-width:0.32"
         d="m 165.68,276.58808 c 0.22,-0.0888 0.58,-0.0888 0.8,0 0.22,0.0888 0.04,0.1614 -0.4,0.1614 -0.44,0 -0.62,-0.0726 -0.4,-0.1614 z m 13.44001,0 c 0.22,-0.0888 0.58,-0.0888 0.8,0 0.22,0.0888 0.04,0.1614 -0.4,0.1614 -0.44,0 -0.62,-0.0726 -0.4,-0.1614 z M 170.32,268.25942 c 0.308,-0.0805 0.812,-0.0805 1.12,0 0.308,0.0805 0.056,0.14635 -0.56,0.14635 -0.616,0 -0.868,-0.0659 -0.56,-0.14635 z m 3.84001,0 c 0.308,-0.0805 0.812,-0.0805 1.12,0 0.308,0.0805 0.056,0.14635 -0.56,0.14635 -0.616,0 -0.868,-0.0659 -0.56,-0.14635 z M 165.7,267.94141 c 0.231,-0.0924 0.50701,-0.0811 0.61334,0.0252 0.10633,0.10633 -0.0827,0.18197 -0.42,0.16807 -0.37278,-0.0154 -0.44861,-0.0912 -0.19334,-0.19333 z m 13.76001,0 c 0.23099,-0.0924 0.507,-0.0811 0.61333,0.0252 0.10633,0.10633 -0.0827,0.18197 -0.42,0.16807 -0.37278,-0.0154 -0.44861,-0.0912 -0.19333,-0.19333 z m -75.65041,-17.1414 -0.6096,-0.72 0.72,0.60959 c 0.67662,0.57287 0.86568,0.83041 0.6096,0.83041 -0.0607,0 -0.38472,-0.324 -0.72,-0.72 z m 137.63041,0.08 c 0.31855,-0.352 0.65119,-0.64 0.73919,-0.64 0.088,0 -0.10064,0.288 -0.41919,0.64 -0.31856,0.352 -0.6512,0.64 -0.7392,0.64 -0.088,0 0.10064,-0.288 0.4192,-0.64 z m -142.40859,-4.56 -2.231417,-2.32 2.32,2.23141 c 1.275997,1.22728 2.319997,2.27128 2.319997,2.32 0,0.23473 -0.33604,-0.0766 -2.40858,-2.23141 z m 147.20859,0.08 c 1.22256,-1.232 2.29483,-2.24 2.38283,-2.24 0.088,0 -0.84027,1.008 -2.06283,2.24 -1.22256,1.232 -2.29484,2.24 -2.38284,2.24 -0.088,0 0.84028,-1.008 2.06284,-2.24 z m -134.60083,-0.56 c -0.39803,-0.50754 -0.38672,-0.51886 0.12082,-0.12082 0.308,0.24155 0.56,0.49355 0.56,0.56 0,0.26337 -0.26278,0.0939 -0.68082,-0.43918 z m -1.92,-1.6 c -0.39803,-0.50754 -0.38672,-0.51886 0.12082,-0.12082 0.308,0.24155 0.56,0.49355 0.56,0.56 0,0.26337 -0.26278,0.0939 -0.68082,-0.43918 z m -4.44842,-4.16 -2.07076,-2.16 2.16,2.07075 c 2.0063,1.92341 2.30628,2.24925 2.07076,2.24925 -0.0491,0 -1.02109,-0.972 -2.16,-2.16 z m -4.19158,-4.48 c -0.39803,-0.50754 -0.38672,-0.51886 0.12082,-0.12082 0.308,0.24155 0.56,0.49355 0.56,0.56 0,0.26337 -0.26278,0.0939 -0.68082,-0.43918 z m -1.599996,-1.92 c -0.398039,-0.50754 -0.38672,-0.51886 0.120819,-0.12082 0.308,0.24155 0.559997,0.49355 0.559997,0.56 0,0.26337 -0.262778,0.0939 -0.680816,-0.43918 z m -30.628657,-54.16 c 0,-0.44 0.07263,-0.62 0.161405,-0.4 0.08877,0.22 0.08877,0.58 0,0.8 -0.08877,0.22 -0.161405,0.04 -0.161405,-0.4 z m 8.614739,0.13333 c 0.01536,-0.37278 0.09118,-0.44861 0.193331,-0.19333 0.09244,0.23099 0.08107,0.507 -0.02525,0.61333 -0.106336,0.10633 -0.181964,-0.0827 -0.16807,-0.42 z m 199.065264,-0.13333 c 0,-0.44 0.0726,-0.62 0.16141,-0.4 0.0888,0.22 0.0888,0.58 0,0.8 -0.0888,0.22 -0.16141,0.04 -0.16141,-0.4 z m -199.336288,-4.8 c 0,-0.616 0.06586,-0.868 0.146346,-0.56 0.08049,0.308 0.08049,0.812 0,1.12 -0.08049,0.308 -0.146346,0.056 -0.146346,-0.56 z m 0,-3.84001 c 0,-0.616 0.06586,-0.868 0.146346,-0.56 0.08049,0.308 0.08049,0.812 0,1.12 -0.08049,0.308 -0.146346,0.056 -0.146346,-0.56 z m -8.343715,-4.8 c 0,-0.44 0.07263,-0.62 0.161405,-0.4 0.08877,0.22 0.08877,0.58 0,0.8 -0.08877,0.22 -0.161405,0.04 -0.161405,-0.4 z m 207.680003,0 c 0,-0.44 0.0726,-0.62 0.16141,-0.4 0.0888,0.22 0.0888,0.58 0,0.8 -0.0888,0.22 -0.16141,0.04 -0.16141,-0.4 z M 77.465266,165.89334 c 0.01536,-0.37278 0.09118,-0.44861 0.193331,-0.19334 0.09244,0.231 0.08107,0.50701 -0.02525,0.61334 -0.106336,0.10633 -0.181964,-0.0827 -0.16807,-0.42 z m 21.734737,-53.69416 c 0,-0.0664 0.252,-0.31844 0.56,-0.56 0.507537,-0.39803 0.518857,-0.38672 0.120819,0.12082 -0.418038,0.53304 -0.680819,0.70256 -0.680819,0.43918 z m 1.599997,-1.92 c 0,-0.0664 0.252,-0.31844 0.56,-0.56 0.50754,-0.39803 0.51886,-0.38672 0.12082,0.12082 -0.41804,0.53304 -0.68082,0.70256 -0.68082,0.43918 z m 4.48,-4.83918 c 1.13383,-1.144 2.13351,-2.08 2.22151,-2.08 0.088,0 -0.76768,0.936 -1.90151,2.08 -1.13383,1.144 -2.13351,2.08 -2.22151,2.08 -0.088,0 0.76768,-0.936 1.90151,-2.08 z M 94.560003,104 c 0.318557,-0.352 0.651193,-0.64 0.739193,-0.64 0.088,0 -0.100636,0.288 -0.419193,0.64 -0.318557,0.352 -0.651194,0.64 -0.739194,0.64 -0.088,0 0.100637,-0.288 0.419194,-0.64 z m 156.129597,-0.08 -0.60959,-0.72 0.72,0.6096 c 0.396,0.33528 0.72,0.65928 0.72,0.72 0,0.25608 -0.25754,0.067 -0.83041,-0.6096 z M 109.44,101.63918 c 0,-0.0664 0.252,-0.31844 0.56,-0.56 0.50754,-0.39803 0.51886,-0.38672 0.12082,0.12082 -0.41804,0.53304 -0.68082,0.70256 -0.68082,0.43918 z M 99.040003,99.200003 c 1.222557,-1.232 2.294837,-2.24 2.382837,-2.24 0.088,0 -0.84028,1.008 -2.062837,2.24 -1.22256,1.231997 -2.294835,2.239997 -2.382835,2.239997 -0.088,0 0.840275,-1.008 2.062835,-2.239997 z m 147.191417,-0.08 -2.23141,-2.32 2.32,2.231417 c 1.276,1.22728 2.32,2.27128 2.32,2.32 0,0.23472 -0.33604,-0.0766 -2.40859,-2.231417 z M 111.36,100.03918 c 0,-0.06644 0.252,-0.318444 0.56,-0.559996 0.50754,-0.398039 0.51886,-0.38672 0.12082,0.120819 -0.41804,0.533037 -0.68082,0.702557 -0.68082,0.439177 z m -7.52,-5.319177 c 0.31856,-0.352 0.6512,-0.64 0.7392,-0.64 0.088,0 -0.10064,0.288 -0.4192,0.64 -0.31855,0.352 -0.65119,0.64 -0.73919,0.64 -0.088,0 0.10064,-0.288 0.41919,-0.64 z m 137.5696,-0.08 -0.60959,-0.72 0.72,0.609597 c 0.396,0.335276 0.72,0.659276 0.72,0.72 0,0.25608 -0.25754,0.06702 -0.83041,-0.609597 z m -146.56,-3.84 -0.609597,-0.72 0.72,0.609596 c 0.676621,0.572871 0.865677,0.830404 0.609597,0.830404 -0.06072,0 -0.384724,-0.324 -0.72,-0.72 z m -1.409597,-3.92 c 0.597049,-0.616001 1.157545,-1.120001 1.245545,-1.120001 0.088,0 -0.328496,0.504 -0.925545,1.120001 -0.59705,0.616 -1.157546,1.12 -1.245546,1.12 -0.088,0 0.328496,-0.504 0.925546,-1.12 z m 6.719997,0.05987 c 0,-0.05507 0.468,-0.523072 1.04,-1.04 l 1.04,-0.939869 -0.93987,1.04 C 100.42404,86.96943 100.16,87.187091 100.16,86.939871 Z m -11.710401,-6.699869 -0.609596,-0.72 0.72,0.609597 c 0.396,0.335277 0.72,0.659277 0.72,0.72 0,0.25608 -0.257533,0.06702 -0.830404,-0.609597 z M 165.7,77.541407 c 0.231,-0.09244 0.50701,-0.08107 0.61334,0.02525 0.10633,0.106333 -0.0827,0.181965 -0.42,0.16807 -0.37278,-0.01536 -0.44861,-0.09118 -0.19334,-0.193331 z m 13.76001,0 c 0.23099,-0.09244 0.507,-0.08107 0.61333,0.02525 0.10633,0.106333 -0.0827,0.181965 -0.42,0.16807 -0.37278,-0.01536 -0.44861,-0.09118 -0.19333,-0.193331 z M 87.040003,76.320002 c 0.597049,-0.616 1.157545,-1.12 1.245545,-1.12 0.088,0 -0.328496,0.504 -0.925545,1.12 -0.59705,0.616 -1.157546,1.12 -1.245546,1.12 -0.088,0 0.328496,-0.504 0.925546,-1.12 z M 170.32,77.219417 c 0.308,-0.08049 0.812,-0.08049 1.12,0 0.308,0.08049 0.056,0.146345 -0.56,0.146345 -0.616,0 -0.868,-0.06586 -0.56,-0.146345 z m 3.84001,0 c 0.308,-0.08049 0.812,-0.08049 1.12,0 0.308,0.08049 0.056,0.146345 -0.56,0.146345 -0.616,0 -0.868,-0.06586 -0.56,-0.146345 z M 93.760003,76.379871 c 0,-0.05507 0.468,-0.523072 1.04,-1.04 l 1.04,-0.939869 -0.939869,1.04 c -0.87609,0.969427 -1.140131,1.187088 -1.140131,0.939869 z M 226.16374,75.613679 c 0.39805,-0.07654 0.97405,-0.07364 1.28,0.0065 0.30595,0.08009 -0.0197,0.14272 -0.72373,0.139168 -0.704,-0.0036 -0.95432,-0.06909 -0.55627,-0.145626 z m 6.56236,0.0046 c 0.31135,-0.08113 0.74335,-0.0758 0.96,0.01187 0.21665,0.08766 -0.0381,0.154038 -0.56609,0.147517 -0.528,-0.0065 -0.70526,-0.07824 -0.39391,-0.159373 z m -8.96,-0.32 c 0.31135,-0.08113 0.74335,-0.0758 0.96,0.01187 0.21665,0.08766 -0.0381,0.154038 -0.56609,0.147517 -0.528,-0.0065 -0.70526,-0.07824 -0.39391,-0.159373 z m -1.42609,-0.316838 c 0.23099,-0.09244 0.507,-0.08107 0.61333,0.02525 0.10633,0.106332 -0.0827,0.181964 -0.42,0.16807 -0.37278,-0.01536 -0.44861,-0.09118 -0.19333,-0.193331 z m -1.6,-0.32 c 0.23099,-0.09244 0.507,-0.08107 0.61333,0.02525 0.10633,0.106332 -0.0827,0.181964 -0.42,0.16807 -0.37278,-0.01536 -0.44861,-0.09118 -0.19333,-0.193331 z m -16.26,-5.541415 c -0.28842,-0.186387 -0.32789,-0.312157 -0.0989,-0.315101 0.20961,-0.0026 0.47011,0.139101 0.57889,0.315101 0.24553,0.39729 0.13475,0.39729 -0.48,0 z M 165.68,68.908072 c 0.22,-0.08877 0.58,-0.08877 0.8,0 0.22,0.08877 0.04,0.161405 -0.4,0.161405 -0.44,0 -0.62,-0.07263 -0.4,-0.161405 z m 13.44001,0 c 0.22,-0.08877 0.58,-0.08877 0.8,0 0.22,0.08877 0.04,0.161405 -0.4,0.161405 -0.44,0 -0.62,-0.07263 -0.4,-0.161405 z m 56.22797,-1.46807 -1.58797,-1.68 1.68,1.587971 c 1.56108,1.475571 1.82675,1.772029 1.58797,1.772029 -0.0506,0 -0.80662,-0.756 -1.68,-1.68 z m -32.96681,0.542346 c -0.59649,-0.477885 -0.59257,-0.483792 0.0988,-0.14874 0.396,0.191901 0.72,0.415844 0.72,0.497652 0,0.24487 -0.16596,0.174156 -0.81884,-0.348912 z m -2.24,-1.28 c -0.59649,-0.477885 -0.59257,-0.483792 0.0988,-0.14874 0.396,0.191901 0.72,0.415844 0.72,0.497652 0,0.24487 -0.16596,0.174156 -0.81884,-0.348912 z m -2.42198,-1.662346 c -0.39804,-0.507539 -0.38672,-0.518858 0.12082,-0.120819 0.53304,0.418038 0.70255,0.680819 0.43918,0.680819 -0.0665,0 -0.31845,-0.252 -0.56,-0.56 z m -1.42959,-1.12 -0.60959,-0.72 0.72,0.609597 c 0.67662,0.57287 0.86567,0.830403 0.60959,0.830403 -0.0607,0 -0.38472,-0.324 -0.72,-0.72 z m 33.07041,-0.743031 c -1.1963,-0.649004 -1.12348,-0.919315 0.08,-0.296969 0.528,0.27304 0.96,0.564736 0.96,0.648217 0,0.20592 -0.0344,0.194308 -1.04,-0.351248 z m -35.44099,-1.496969 c -0.47112,-0.643552 -0.5484,-0.867056 -0.20271,-0.586317 0.52473,0.426144 1.31814,1.626317 1.07513,1.626317 -0.0611,0 -0.45368,-0.468 -0.87242,-1.04 z m 29.76099,-1.36 c -0.44,-0.251527 -0.656,-0.457322 -0.48,-0.457322 0.176,0 0.68,0.205795 1.12,0.457322 0.44,0.251526 0.656,0.457321 0.48,0.457321 -0.176,0 -0.68,-0.205795 -1.12,-0.457321 z m -2.56,-1.12 c -0.264,-0.170611 -0.336,-0.310199 -0.16,-0.310199 0.176,0 0.536,0.139588 0.8,0.310199 0.264,0.170611 0.336,0.310198 0.16,0.310198 -0.176,0 -0.536,-0.139587 -0.8,-0.310198 z m -12.22,-3.738596 c 0.23099,-0.09244 0.507,-0.08107 0.61333,0.02525 0.10633,0.106333 -0.0827,0.181965 -0.42,0.168071 -0.37278,-0.01536 -0.44861,-0.09118 -0.19333,-0.193331 z m -1.94,-0.313334 c 0.22,-0.08877 0.58,-0.08877 0.8,0 0.22,0.08877 0.04,0.161405 -0.4,0.161405 -0.44,0 -0.62,-0.07263 -0.4,-0.161405 z m -10.54,-0.326666 c 0.23099,-0.09244 0.507,-0.08107 0.61333,0.02525 0.10633,0.106333 -0.0827,0.181965 -0.42,0.168071 -0.37278,-0.01536 -0.44861,-0.09118 -0.19333,-0.193331 z m 8.46609,-0.0032 c 0.31135,-0.08113 0.74335,-0.0758 0.96,0.01187 0.21665,0.08766 -0.0381,0.154039 -0.56609,0.147517 -0.528,-0.0065 -0.70526,-0.07824 -0.39391,-0.159373 z m -5.76609,-0.333417 c 0.836,-0.06592 2.204,-0.06592 3.04,0 0.836,0.06592 0.152,0.119853 -1.52,0.119853 -1.672,0 -2.356,-0.05393 -1.52,-0.119853 z"
         id="path221" />
      <path
         style="fill:#b8b8b8;stroke-width:0.32"
         d="m 166.98,276.58141 c 0.231,-0.0924 0.50701,-0.0811 0.61334,0.0252 0.10633,0.10633 -0.0827,0.18197 -0.42,0.16807 -0.37278,-0.0154 -0.44861,-0.0912 -0.19334,-0.19333 z m 11.20001,0 c 0.23099,-0.0924 0.507,-0.0811 0.61333,0.0252 0.10633,0.10633 -0.0827,0.18197 -0.42,0.16807 -0.37278,-0.0154 -0.44861,-0.0912 -0.19333,-0.19333 z m -8.96001,-8.32 c 0.231,-0.0924 0.50701,-0.0811 0.61334,0.0252 0.10633,0.10633 -0.0827,0.18197 -0.42,0.16807 -0.37278,-0.0154 -0.44861,-0.0912 -0.19334,-0.19333 z m 6.72001,0 c 0.23099,-0.0924 0.507,-0.0811 0.61333,0.0252 0.10633,0.10633 -0.0827,0.18197 -0.42,0.16807 -0.37278,-0.0154 -0.44861,-0.0912 -0.19333,-0.19333 z m -73.26083,-18.5814 c -0.39803,-0.50754 -0.38672,-0.51886 0.12082,-0.12082 0.308,0.24155 0.56,0.49355 0.56,0.56 0,0.26337 -0.26278,0.0939 -0.68082,-0.43918 z m 139.56083,0.43918 c 0,-0.0665 0.252,-0.31845 0.56,-0.56 0.50754,-0.39804 0.51885,-0.38672 0.12082,0.12082 -0.41804,0.53304 -0.68082,0.70255 -0.68082,0.43918 z m -134.27041,-7.31918 -0.6096,-0.72 0.72,0.60959 c 0.396,0.33528 0.72,0.65928 0.72,0.72 0,0.25608 -0.25753,0.067 -0.8304,-0.60959 z m -5.44,-5.44 -0.6096,-0.72 0.72,0.60959 c 0.67662,0.57287 0.86568,0.83041 0.6096,0.83041 -0.0607,0 -0.38472,-0.324 -0.72,-0.72 z M 68.825266,178.37334 c 0.01536,-0.37278 0.09118,-0.44861 0.193331,-0.19333 0.09244,0.23099 0.08107,0.507 -0.02525,0.61333 -0.106336,0.10633 -0.181965,-0.0827 -0.16807,-0.42 z m 207.680004,0 c 0.0154,-0.37278 0.0912,-0.44861 0.19333,-0.19333 0.0924,0.23099 0.0811,0.507 -0.0252,0.61333 -0.10634,0.10633 -0.18197,-0.0827 -0.16808,-0.42 z m -199.360004,-2.24 c 0.01536,-0.37278 0.09118,-0.44861 0.193331,-0.19333 0.09244,0.23099 0.08107,0.507 -0.02525,0.61333 -0.106336,0.10633 -0.181964,-0.0827 -0.16807,-0.42 z m 0,-6.72 c 0.01536,-0.37278 0.09118,-0.44861 0.193331,-0.19334 0.09244,0.231 0.08107,0.50701 -0.02525,0.61334 -0.106336,0.10633 -0.181964,-0.0827 -0.16807,-0.42 z m -8.32,-2.24 c 0.01536,-0.37278 0.09118,-0.44861 0.193331,-0.19334 0.09244,0.231 0.08107,0.50701 -0.02525,0.61334 -0.106336,0.10633 -0.181965,-0.0827 -0.16807,-0.42 z m 207.680004,0 c 0.0154,-0.37278 0.0912,-0.44861 0.19333,-0.19334 0.0924,0.231 0.0811,0.50701 -0.0252,0.61334 -0.10634,0.10633 -0.18197,-0.0827 -0.16808,-0.42 z M 102.56,108.16 c 0.31856,-0.352 0.6512,-0.64 0.7392,-0.64 0.088,0 -0.10064,0.288 -0.4192,0.64 -0.31855,0.352 -0.65119,0.64 -0.73919,0.64 -0.088,0 0.10064,-0.288 0.41919,-0.64 z m -7.199997,-4.92082 c 0,-0.0664 0.252,-0.31844 0.56,-0.56 0.507539,-0.39803 0.518857,-0.38672 0.120819,0.12082 -0.418038,0.53304 -0.680819,0.70256 -0.680819,0.43918 z M 108,102.72 c 0.31856,-0.352 0.6512,-0.64 0.7392,-0.64 0.088,0 -0.10064,0.288 -0.4192,0.64 -0.31855,0.352 -0.65119,0.64 -0.73919,0.64 -0.088,0 0.10064,-0.288 0.41919,-0.64 z m 141.55919,0.08 c -0.39804,-0.50754 -0.38672,-0.51885 0.12082,-0.12082 0.53304,0.41804 0.70255,0.68082 0.43918,0.68082 -0.0665,0 -0.31845,-0.252 -0.56,-0.56 z M 102.4,96.199184 c 0,-0.06645 0.252,-0.318448 0.56,-0.56 0.50754,-0.398039 0.51886,-0.38672 0.12082,0.120819 -0.41804,0.53304 -0.68082,0.702553 -0.68082,0.439181 z m 140.11919,-0.439181 c -0.39804,-0.507539 -0.38672,-0.518858 0.12082,-0.120819 0.308,0.241552 0.56,0.493552 0.56,0.56 0,0.263372 -0.26278,0.09386 -0.68082,-0.439181 z m -148.94959,-6.24 -0.609597,-0.72 0.72,0.609596 c 0.396,0.335277 0.72,0.659277 0.72,0.72 0,0.25608 -0.257533,0.06702 -0.830403,-0.609596 z m 5.790403,-1.84 c 0.318557,-0.352 0.651197,-0.64 0.739197,-0.64 0.088,0 -0.10064,0.288 -0.419197,0.64 -0.318557,0.352 -0.651194,0.64 -0.739194,0.64 -0.088,0 0.100637,-0.288 0.419194,-0.64 z m -4.64,-2.04082 c 0,-0.06645 0.252,-0.318448 0.56,-0.56 0.507539,-0.398038 0.518857,-0.38672 0.120819,0.120819 -0.418038,0.53304 -0.680819,0.702554 -0.680819,0.439181 z m -7.550404,-6.679181 -0.609596,-0.72 0.72,0.609597 c 0.67662,0.57287 0.865676,0.830403 0.609596,0.830403 -0.06072,0 -0.384723,-0.324 -0.72,-0.72 z m 5.790404,-1.84 c 0.318556,-0.352 0.651193,-0.64 0.739193,-0.64 0.088,0 -0.100636,0.288 -0.419193,0.64 -0.318557,0.352 -0.651194,0.64 -0.739194,0.64 -0.088,0 0.100637,-0.288 0.419194,-0.64 z M 169.22,77.221407 c 0.231,-0.09244 0.50701,-0.08107 0.61334,0.02525 0.10633,0.106333 -0.0827,0.181965 -0.42,0.16807 -0.37278,-0.01536 -0.44861,-0.09118 -0.19334,-0.193331 z m 6.72001,0 c 0.23099,-0.09244 0.507,-0.08107 0.61333,0.02525 0.10633,0.106333 -0.0827,0.181965 -0.42,0.16807 -0.37278,-0.01536 -0.44861,-0.09118 -0.19333,-0.193331 z m 52.94,-1.614515 c 0.66,-0.06904 1.74,-0.06904 2.4,0 0.66,0.06904 0.12,0.125523 -1.2,0.125523 -1.32,0 -1.86,-0.05648 -1.2,-0.125523 z m -3.68,-0.298819 c 0.22,-0.08877 0.58,-0.08877 0.8,0 0.22,0.08877 0.04,0.161404 -0.4,0.161404 -0.44,0 -0.62,-0.07263 -0.4,-0.161404 z m 8.66,-0.0067 c 0.231,-0.09244 0.507,-0.08107 0.61333,0.02525 0.10633,0.106332 -0.0827,0.181964 -0.42,0.16807 -0.37278,-0.01536 -0.44861,-0.09118 -0.19333,-0.193331 z M 88.320003,75.079183 c 0,-0.06645 0.252,-0.318448 0.56,-0.56 0.507539,-0.398038 0.518857,-0.38672 0.120819,0.120819 -0.418039,0.53304 -0.680819,0.702554 -0.680819,0.439181 z m 134.980007,-0.09778 c 0.23099,-0.09244 0.507,-0.08107 0.61333,0.02525 0.10633,0.106333 -0.0827,0.181965 -0.42,0.16807 -0.37278,-0.01536 -0.44861,-0.09118 -0.19333,-0.193331 z m -56.32001,-6.08 c 0.231,-0.09244 0.50701,-0.08107 0.61334,0.02525 0.10633,0.106333 -0.0827,0.181965 -0.42,0.16807 -0.37278,-0.01536 -0.44861,-0.09118 -0.19334,-0.193331 z m 11.20001,0 c 0.23099,-0.09244 0.507,-0.08107 0.61333,0.02525 0.10633,0.106333 -0.0827,0.181965 -0.42,0.16807 -0.37278,-0.01536 -0.44861,-0.09118 -0.19333,-0.193331 z m 46.14,-0.746621 c -6.83187,-1.231587 -15.22277,-4.142912 -20.00244,-6.940087 -3.15856,-1.848467 -6.23756,-4.171411 -6.23756,-4.705907 0,-1.63447 10.16983,-0.273549 17.94734,2.401706 6.18208,2.126467 10.87581,4.447609 14.54794,7.194253 2.66671,1.994617 2.56672,2.518633 -0.49528,2.595497 -1.32,0.03314 -3.912,-0.21232 -5.76,-0.545462 z m 9.55918,-1.834784 c -0.39804,-0.507539 -0.38672,-0.518858 0.12082,-0.120819 0.53304,0.418038 0.70255,0.680819 0.43918,0.680819 -0.0665,0 -0.31845,-0.252 -0.56,-0.56 z m -38.86959,-3.68 -0.60959,-0.72 0.72,0.609597 c 0.67662,0.57287 0.86567,0.830403 0.60959,0.830403 -0.0607,0 -0.38472,-0.324 -0.72,-0.72 z m 2.37041,-7.818596 c 0.23099,-0.09244 0.507,-0.08107 0.61333,0.02525 0.10633,0.106333 -0.0827,0.181965 -0.42,0.168071 -0.37278,-0.01536 -0.44861,-0.09118 -0.19333,-0.193331 z m 6.4,0 c 0.23099,-0.09244 0.507,-0.08107 0.61333,0.02525 0.10633,0.106333 -0.0827,0.181965 -0.42,0.168071 -0.37278,-0.01536 -0.44861,-0.09118 -0.19333,-0.193331 z"
         id="path219" />
      <path
         style="fill:#909090;stroke-width:0.32"
         d="m 167.92,276.58808 c 0.22,-0.0888 0.58,-0.0888 0.8,0 0.22,0.0888 0.04,0.1614 -0.4,0.1614 -0.44,0 -0.62,-0.0726 -0.4,-0.1614 z m 8.96001,0 c 0.22,-0.0888 0.58,-0.0888 0.8,0 0.22,0.0888 0.04,0.1614 -0.4,0.1614 -0.44,0 -0.62,-0.0726 -0.4,-0.1614 z M 168.26,268.26141 c 0.231,-0.0924 0.50701,-0.0811 0.61334,0.0252 0.10633,0.10633 -0.0827,0.18197 -0.42,0.16807 -0.37278,-0.0154 -0.44861,-0.0912 -0.19334,-0.19333 z m 8.64001,0 c 0.23099,-0.0924 0.507,-0.0811 0.61333,0.0252 0.10633,0.10633 -0.0827,0.18197 -0.42,0.16807 -0.37278,-0.0154 -0.44861,-0.0912 -0.19333,-0.19333 z m -75.64014,-20.0214 -0.93987,-1.04 1.04,0.93987 c 0.96943,0.87609 1.18709,1.14013 0.93987,1.14013 -0.0551,0 -0.52307,-0.468 -1.04,-1.04 z m 141.94014,0.93987 c 0,-0.0551 0.468,-0.52308 1.04,-1.04 l 1.04,-0.93987 -0.93987,1.04 c -0.87609,0.96942 -1.14013,1.18709 -1.14013,0.93987 z m -146.100138,-5.09987 -0.939869,-1.04 1.04,0.93987 c 0.969427,0.87609 1.187088,1.14013 0.939869,1.14013 -0.05507,0 -0.523072,-0.468 -1.04,-1.04 z m 150.260138,0.93987 c 0,-0.0551 0.468,-0.52308 1.04,-1.04 l 1.04,-0.93987 -0.93987,1.04 c -0.87609,0.96942 -1.14013,1.18709 -1.14013,0.93987 z m -142.27041,-4.77987 -0.6096,-0.72 0.72,0.60959 c 0.67662,0.57287 0.86568,0.83041 0.6096,0.83041 -0.0607,0 -0.38472,-0.324 -0.72,-0.72 z m -36.239073,-62.96 c 0,-0.44 0.07263,-0.62 0.161405,-0.4 0.08877,0.22 0.08877,0.58 0,0.8 -0.08877,0.22 -0.161405,0.04 -0.161405,-0.4 z m 207.680003,0 c 0,-0.44 0.0726,-0.62 0.16141,-0.4 0.0888,0.22 0.0888,0.58 0,0.8 -0.0888,0.22 -0.16141,0.04 -0.16141,-0.4 z M 77.145266,177.09334 c 0.01536,-0.37278 0.09118,-0.44861 0.193331,-0.19333 0.09244,0.23099 0.08107,0.507 -0.02525,0.61333 -0.106336,0.10633 -0.181964,-0.0827 -0.16807,-0.42 z M 68.850527,168.32 c 0,-0.44 0.07263,-0.62 0.161405,-0.4 0.08877,0.22 0.08877,0.58 0,0.8 -0.08877,0.22 -0.161405,0.04 -0.161405,-0.4 z m 8.294739,0.13334 c 0.01536,-0.37278 0.09118,-0.44861 0.193331,-0.19334 0.09244,0.231 0.08107,0.50701 -0.02525,0.61334 -0.106336,0.10633 -0.181964,-0.0827 -0.16807,-0.42 z M 276.53053,168.32 c 0,-0.44 0.0726,-0.62 0.16141,-0.4 0.0888,0.22 0.0888,0.58 0,0.8 -0.0888,0.22 -0.16141,0.04 -0.16141,-0.4 z M 105.12,105.28 c 0.31856,-0.352 0.6512,-0.64 0.7392,-0.64 0.088,0 -0.10064,0.288 -0.4192,0.64 -0.31855,0.352 -0.65119,0.64 -0.73919,0.64 -0.088,0 0.10064,-0.288 0.41919,-0.64 z m -8.799997,-2.98013 c 0,-0.0551 0.468,-0.52307 1.04,-1.04 l 1.04,-0.93987 -0.939869,1.04 c -0.87609,0.96943 -1.140131,1.18709 -1.140131,0.93987 z M 248.13988,101.36 l -0.93987,-1.04 1.04,0.93987 c 0.572,0.51693 1.04,0.98493 1.04,1.04 0,0.24722 -0.26404,0.0296 -1.14013,-0.93987 z M 100.48,98.139872 c 0,-0.05507 0.468,-0.523072 1.04,-1.04 l 1.04,-0.939869 -0.93987,1.04 C 100.74404,98.16943 100.48,98.387091 100.48,98.139872 Z m 143.49988,-0.939869 -0.93987,-1.04 1.04,0.939869 c 0.572,0.516928 1.04,0.984928 1.04,1.04 0,0.247219 -0.26404,0.02957 -1.14013,-0.939869 z m -146.059877,-8.08 c 0.41336,-0.44 0.823561,-0.8 0.911561,-0.8 0.088,0 -0.178201,0.36 -0.591561,0.8 -0.41336,0.44 -0.823562,0.8 -0.911562,0.8 -0.088,0 0.178202,-0.36 0.591562,-0.8 z m -1.76,-4.960001 c 0.318557,-0.352 0.651193,-0.64 0.739193,-0.64 0.088,0 -0.100636,0.288 -0.419193,0.64 -0.318557,0.352 -0.651194,0.64 -0.739194,0.64 -0.088,0 0.100637,-0.288 0.419194,-0.64 z m -4.64,-5.6 c 0.41336,-0.44 0.823561,-0.8 0.911561,-0.8 0.088,0 -0.178201,0.36 -0.591561,0.8 -0.41336,0.44 -0.823562,0.8 -0.911562,0.8 -0.088,0 0.178202,-0.36 0.591562,-0.8 z M 168.26,77.221407 c 0.231,-0.09244 0.50701,-0.08107 0.61334,0.02525 0.10633,0.106333 -0.0827,0.181965 -0.42,0.16807 -0.37278,-0.01536 -0.44861,-0.09118 -0.19334,-0.193331 z m 8.64001,0 c 0.23099,-0.09244 0.507,-0.08107 0.61333,0.02525 0.10633,0.106333 -0.0827,0.181965 -0.42,0.16807 -0.37278,-0.01536 -0.44861,-0.09118 -0.19333,-0.193331 z m 49.58,-1.913334 c 0.22,-0.08877 0.58,-0.08877 0.8,0 0.22,0.08877 0.04,0.161404 -0.4,0.161404 -0.44,0 -0.62,-0.07263 -0.4,-0.161404 z m 6.42,-0.0067 c 0.231,-0.09244 0.507,-0.08107 0.61333,0.02525 0.10633,0.106332 -0.0827,0.181964 -0.42,0.16807 -0.37278,-0.01536 -0.44861,-0.09118 -0.19333,-0.193331 z M 89.760003,73.600002 c 0.318556,-0.352 0.651193,-0.64 0.739193,-0.64 0.088,0 -0.100637,0.288 -0.419193,0.64 -0.318557,0.352 -0.651194,0.64 -0.739194,0.64 -0.088,0 0.100637,-0.288 0.419194,-0.64 z M 167.92,68.908072 c 0.22,-0.08877 0.58,-0.08877 0.8,0 0.22,0.08877 0.04,0.161405 -0.4,0.161405 -0.44,0 -0.62,-0.07263 -0.4,-0.161405 z m 8.96001,0 c 0.22,-0.08877 0.58,-0.08877 0.8,0 0.22,0.08877 0.04,0.161405 -0.4,0.161405 -0.44,0 -0.62,-0.07263 -0.4,-0.161405 z m 47.92,-0.303958 c -5.39251,-0.965712 -13.76661,-3.56673 -16.39821,-5.093322 -1.07758,-0.625104 -0.78984,-0.530297 3.35761,1.106269 7.94425,3.134775 20.15704,5.286935 20.78059,3.661994 0.12779,-0.333011 -0.0779,-0.741802 -0.57004,-1.133143 -1.71869,-1.366544 -4.56415,-3.229824 -6.7618,-4.427798 -1.28049,-0.69801 -2.17811,-1.271136 -1.99473,-1.27361 0.56527,-0.0076 5.96188,3.201546 7.93101,4.716298 2.02615,1.558605 2.47393,2.228595 1.7822,2.666595 -0.66753,0.422679 -5.21772,0.297661 -8.12663,-0.223283 z m 10.70277,-0.684112 -1.10277,-1.2 1.2,1.102774 c 1.11693,1.026436 1.34713,1.297226 1.10277,1.297226 -0.0535,0 -0.59347,-0.54 -1.2,-1.2 z m -40.30277,-5.36 c -0.77729,-0.792 -1.34126,-1.44 -1.25326,-1.44 0.088,0 0.79597,0.648 1.57326,1.44 0.77729,0.792 1.34125,1.44 1.25325,1.44 -0.088,0 -0.79596,-0.648 -1.57325,-1.44 z m 8.16,-1.575987 c -3.63458,-2.163018 -5.78958,-4.028426 -5.50638,-4.766429 0.11825,-0.308164 0.51784,-0.518986 0.93633,-0.494007 l 0.73005,0.04358 -0.72,0.138678 c -0.396,0.07627 -0.72,0.34 -0.72,0.586058 0,0.566377 2.62018,2.55128 6.10247,4.62289 1.48364,0.882614 2.55353,1.5999 2.37753,1.593968 -0.176,-0.0059 -1.616,-0.782064 -3.2,-1.724736 z m 18.08,-0.02401 c -0.44,-0.251527 -0.656,-0.457322 -0.48,-0.457322 0.176,0 0.68,0.205795 1.12,0.457322 0.44,0.251526 0.656,0.457321 0.48,0.457321 -0.176,0 -0.68,-0.205795 -1.12,-0.457321 z m -2.4,-0.971261 c -0.8002,-0.385424 -0.82684,-0.429843 -0.16,-0.266858 0.90672,0.22162 1.92592,0.741095 1.44,0.733956 -0.176,-0.0026 -0.752,-0.212781 -1.28,-0.467098 z m -2.56,-0.96 c -0.8002,-0.385424 -0.82684,-0.429843 -0.16,-0.266858 0.90672,0.22162 1.92592,0.741095 1.44,0.733956 -0.176,-0.0026 -0.752,-0.212781 -1.28,-0.467098 z m -5.34,-1.647335 c 0.23099,-0.09244 0.507,-0.08107 0.61333,0.02525 0.10633,0.106333 -0.0827,0.181965 -0.42,0.168071 -0.37278,-0.01536 -0.44861,-0.09118 -0.19333,-0.193331 z m -2.56,-0.64 c 0.23099,-0.09244 0.507,-0.08107 0.61333,0.02525 0.10633,0.106333 -0.0827,0.181965 -0.42,0.168071 -0.37278,-0.01536 -0.44861,-0.09118 -0.19333,-0.193331 z m -1.6,-0.32 c 0.23099,-0.09244 0.507,-0.08107 0.61333,0.02525 0.10633,0.106333 -0.0827,0.181965 -0.42,0.168071 -0.37278,-0.01536 -0.44861,-0.09118 -0.19333,-0.193331 z m -1.94,-0.313334 c 0.22,-0.08877 0.58,-0.08877 0.8,0 0.22,0.08877 0.04,0.161405 -0.4,0.161405 -0.44,0 -0.62,-0.07263 -0.4,-0.161405 z m -2.55627,-0.334394 c 0.39805,-0.07654 0.97405,-0.07363 1.28,0.0065 0.30595,0.08009 -0.0198,0.14272 -0.72373,0.139168 -0.704,-0.0036 -0.95432,-0.06908 -0.55627,-0.145625 z m 2.89627,-0.632272 c 0.23099,-0.09244 0.507,-0.08107 0.61333,0.02525 0.10633,0.106333 -0.0827,0.181965 -0.42,0.168071 -0.37278,-0.01536 -0.44861,-0.09118 -0.19333,-0.193331 z m -7.06,-0.313334 c 0.22,-0.08877 0.58,-0.08877 0.8,0 0.22,0.08877 0.04,0.161405 -0.4,0.161405 -0.44,0 -0.62,-0.07263 -0.4,-0.161405 z m 3.68,-0.0087 c 0.308,-0.08049 0.812,-0.08049 1.12,0 0.308,0.08049 0.056,0.146346 -0.56,0.146346 -0.616,0 -0.868,-0.06586 -0.56,-0.146346 z"
         id="path217" />
      <path
         style="fill:#6f6f6f;stroke-width:0.32"
         d="m 169.22,276.58141 c 0.231,-0.0924 0.50701,-0.0811 0.61334,0.0252 0.10633,0.10633 -0.0827,0.18197 -0.42,0.16807 -0.37278,-0.0154 -0.44861,-0.0912 -0.19334,-0.19333 z m 6.72001,0 c 0.23099,-0.0924 0.507,-0.0811 0.61333,0.0252 0.10633,0.10633 -0.0827,0.18197 -0.42,0.16807 -0.37278,-0.0154 -0.44861,-0.0912 -0.19333,-0.19333 z m -76.757233,-30.4214 -1.102774,-1.2 1.2,1.10277 c 0.66,0.60653 1.199997,1.14653 1.199997,1.2 0,0.24436 -0.27079,0.0142 -1.297223,-1.10277 z m 146.897233,0.08 c 0.59705,-0.616 1.15754,-1.12 1.24554,-1.12 0.088,0 -0.32849,0.504 -0.92554,1.12 -0.59705,0.616 -1.15755,1.12 -1.24555,1.12 -0.088,0 0.3285,-0.504 0.92555,-1.12 z m -139.88083,-4.88 c -0.39803,-0.50754 -0.38672,-0.51886 0.12082,-0.12082 0.308,0.24155 0.56,0.49355 0.56,0.56 0,0.26337 -0.26278,0.0939 -0.68082,-0.43918 z m -2.24,-2.24 c -0.39803,-0.50754 -0.38672,-0.51886 0.12082,-0.12082 0.53304,0.41804 0.70256,0.68082 0.43918,0.68082 -0.0664,0 -0.31844,-0.252 -0.56,-0.56 z M 68.825266,176.13334 c 0.01536,-0.37278 0.09118,-0.44861 0.193331,-0.19333 0.09244,0.23099 0.08107,0.507 -0.02525,0.61333 -0.106336,0.10633 -0.181965,-0.0827 -0.16807,-0.42 z m 207.680004,0 c 0.0154,-0.37278 0.0912,-0.44861 0.19333,-0.19333 0.0924,0.23099 0.0811,0.507 -0.0252,0.61333 -0.10634,0.10633 -0.18197,-0.0827 -0.16808,-0.42 z m -207.680004,-6.72 c 0.01536,-0.37278 0.09118,-0.44861 0.193331,-0.19334 0.09244,0.231 0.08107,0.50701 -0.02525,0.61334 -0.106336,0.10633 -0.181965,-0.0827 -0.16807,-0.42 z m 207.680004,0 c 0.0154,-0.37278 0.0912,-0.44861 0.19333,-0.19334 0.0924,0.231 0.0811,0.50701 -0.0252,0.61334 -0.10634,0.10633 -0.18197,-0.0827 -0.16808,-0.42 z M 103.68,106.75918 c 0,-0.0664 0.252,-0.31844 0.56,-0.56 0.50754,-0.39803 0.51886,-0.38672 0.12082,0.12082 -0.41804,0.53304 -0.68082,0.70256 -0.68082,0.43918 z m 2.24,-2.24 c 0,-0.0664 0.252,-0.31844 0.56,-0.56 0.50754,-0.39803 0.51886,-0.38672 0.12082,0.12082 -0.41804,0.53304 -0.68082,0.70256 -0.68082,0.43918 z m -6.719997,-5.159177 c 0.597049,-0.616 1.157547,-1.12 1.245547,-1.12 0.088,0 -0.3285,0.504 -0.925547,1.12 -0.59705,0.616 -1.157546,1.119997 -1.245546,1.119997 -0.088,0 0.328496,-0.503997 0.925546,-1.119997 z m 146.862777,-0.08 -1.10277,-1.2 1.2,1.102774 c 1.11693,1.026433 1.34713,1.297223 1.10277,1.297223 -0.0535,0 -0.59347,-0.539997 -1.2,-1.199997 z M 96.320003,90.759183 c 0,-0.06645 0.252,-0.318448 0.56,-0.56 0.507539,-0.398038 0.518857,-0.38672 0.120819,0.12082 -0.418038,0.53304 -0.680819,0.702553 -0.680819,0.43918 z m 1.12,-7.879181 c 0.318557,-0.352 0.651193,-0.64 0.739193,-0.64 0.088,0 -0.100636,0.288 -0.419193,0.64 -0.318557,0.352 -0.651194,0.64 -0.739194,0.64 -0.088,0 0.100637,-0.288 0.419194,-0.64 z m -7.52,-2.680819 c 0,-0.06645 0.252,-0.318448 0.56,-0.56 0.507539,-0.398038 0.518857,-0.38672 0.120819,0.120819 -0.418039,0.53304 -0.680819,0.702554 -0.680819,0.439181 z M 227.9261,75.298245 c 0.31135,-0.08113 0.74335,-0.0758 0.96,0.01187 0.21665,0.08766 -0.0381,0.154039 -0.56609,0.147517 -0.528,-0.0065 -0.70526,-0.07824 -0.39391,-0.159373 z m 3.67391,0.0098 c 0.22,-0.08877 0.58,-0.08877 0.8,0 0.22,0.08877 0.04,0.161405 -0.4,0.161405 -0.44,0 -0.62,-0.07263 -0.4,-0.161405 z m -6.7,-0.326665 c 0.23099,-0.09244 0.507,-0.08107 0.61333,0.02525 0.10633,0.106333 -0.0827,0.181965 -0.42,0.16807 -0.37278,-0.01536 -0.44861,-0.09118 -0.19333,-0.193331 z M 91.040003,72.320002 c 0.318556,-0.352 0.651193,-0.64 0.739193,-0.64 0.088,0 -0.100637,0.288 -0.419193,0.64 -0.318557,0.352 -0.651194,0.64 -0.739194,0.64 -0.088,0 0.100637,-0.288 0.419194,-0.64 z M 228.01012,69.725404 c -9.72977,-1.020679 -22.13531,-5.731997 -28.2321,-10.721853 -2.31196,-1.892212 -2.81242,-2.494833 -2.49645,-3.006084 0.33546,-0.542781 0.74656,-0.348224 0.58331,0.276058 -0.31013,1.185942 4.77504,4.687597 10.64729,7.331728 6.22373,2.802394 14.77341,5.103543 20.16816,5.428266 5.13104,0.308848 5.74409,-0.305466 2.67968,-2.6852 -1.056,-0.820058 -1.92,-1.548855 -1.92,-1.619549 0,-0.294739 2.89193,1.979165 4.15889,3.270109 l 1.3696,1.39552 -1.24424,0.197811 c -2.39215,0.380301 -3.18285,0.398733 -5.71414,0.133194 z M 169.22,68.901407 c 0.231,-0.09244 0.50701,-0.08107 0.61334,0.02525 0.10633,0.106333 -0.0827,0.181965 -0.42,0.16807 -0.37278,-0.01536 -0.44861,-0.09118 -0.19334,-0.193331 z m 6.72001,0 c 0.23099,-0.09244 0.507,-0.08107 0.61333,0.02525 0.10633,0.106333 -0.0827,0.181965 -0.42,0.16807 -0.37278,-0.01536 -0.44861,-0.09118 -0.19333,-0.193331 z m 57.93918,-2.261405 c -0.39804,-0.507539 -0.38672,-0.518858 0.12082,-0.120819 0.53304,0.418038 0.70255,0.680819 0.43918,0.680819 -0.0665,0 -0.31845,-0.252 -0.56,-0.56 z m -5.57802,-2.497655 c -0.59649,-0.477884 -0.59257,-0.483792 0.0988,-0.148739 0.396,0.191901 0.72,0.415843 0.72,0.497651 0,0.244871 -0.16596,0.174157 -0.81884,-0.348912 z m -1.6,-0.96 c -0.59649,-0.477884 -0.59257,-0.483792 0.0988,-0.148739 0.396,0.191901 0.72,0.415843 0.72,0.497651 0,0.244871 -0.16596,0.174157 -0.81884,-0.348912 z m -18.76116,-6.760941 c 0.23099,-0.09244 0.507,-0.08107 0.61333,0.02525 0.10633,0.106333 -0.0827,0.181965 -0.42,0.168071 -0.37278,-0.01536 -0.44861,-0.09118 -0.19333,-0.193331 z m -1.6,-0.32 c 0.23099,-0.09244 0.507,-0.08107 0.61333,0.02525 0.10633,0.106333 -0.0827,0.181965 -0.42,0.168071 -0.37278,-0.01536 -0.44861,-0.09118 -0.19333,-0.193331 z m -1.92,-0.32 c 0.23099,-0.09244 0.507,-0.08107 0.61333,0.02525 0.10633,0.106333 -0.0827,0.181965 -0.42,0.168071 -0.37278,-0.01536 -0.44861,-0.09118 -0.19333,-0.193331 z m -4.49427,-0.333318 c 0.57515,-0.07122 1.43915,-0.06975 1.92,0.0033 0.48085,0.07302 0.0103,0.131286 -1.04573,0.129491 -1.056,-0.0019 -1.44943,-0.06154 -0.87427,-0.132755 z"
         id="path215" />
      <path
         style="fill:#4f4f4f;stroke-width:0.32"
         d="m 170.18,276.58141 c 0.231,-0.0924 0.50701,-0.0811 0.61334,0.0252 0.10633,0.10633 -0.0827,0.18197 -0.42,0.16807 -0.37278,-0.0154 -0.44861,-0.0912 -0.19334,-0.19333 z m 4.80001,0 c 0.23099,-0.0924 0.507,-0.0811 0.61333,0.0252 0.10633,0.10633 -0.0827,0.18197 -0.42,0.16807 -0.37278,-0.0154 -0.44861,-0.0912 -0.19333,-0.19333 z M 68.825266,175.17334 c 0.01536,-0.37278 0.09118,-0.44861 0.193331,-0.19333 0.09244,0.23099 0.08107,0.507 -0.02525,0.61333 -0.106336,0.10633 -0.181965,-0.0827 -0.16807,-0.42 z m 207.680004,0 c 0.0154,-0.37278 0.0912,-0.44861 0.19333,-0.19333 0.0924,0.23099 0.0811,0.507 -0.0252,0.61333 -0.10634,0.10633 -0.18197,-0.0827 -0.16808,-0.42 z m -207.680004,-4.8 c 0.01536,-0.37278 0.09118,-0.44861 0.193331,-0.19334 0.09244,0.231 0.08107,0.50701 -0.02525,0.61334 -0.106336,0.10633 -0.181965,-0.0827 -0.16807,-0.42 z m 207.680004,0 c 0.0154,-0.37278 0.0912,-0.44861 0.19333,-0.19334 0.0924,0.231 0.0811,0.50701 -0.0252,0.61334 -0.10634,0.10633 -0.18197,-0.0827 -0.16808,-0.42 z M 229.68374,75.293679 c 0.39805,-0.07654 0.97405,-0.07363 1.28,0.0065 0.30595,0.08009 -0.0197,0.14272 -0.72373,0.139168 -0.704,-0.0036 -0.95432,-0.06909 -0.55627,-0.145626 z m -9.58373,-1.272272 c 0.23099,-0.09244 0.507,-0.08107 0.61333,0.02525 0.10633,0.106333 -0.0827,0.181965 -0.42,0.16807 -0.37278,-0.01536 -0.44861,-0.09118 -0.19333,-0.193331 z m 6.3,-4.085965 c -10.62239,-1.664893 -21.28162,-5.988605 -27.4485,-11.133959 -1.84869,-1.542464 -2.37913,-2.394992 -1.81421,-2.915837 0.30042,-0.276969 0.34221,-0.269254 0.17233,0.03181 -0.33977,0.602192 0.09,1.139492 2.46839,3.086084 6.82571,5.586432 21.55049,10.752259 30.78199,10.799094 1.584,0.008 3.2196,-0.115219 3.63466,-0.2739 0.72692,-0.277908 0.67397,-0.363428 -1.44,-2.325834 -1.20706,-1.120525 -1.7495,-1.730035 -1.20542,-1.354464 1.10035,0.759549 3.65076,3.303661 3.65076,3.641747 0,0.342077 -3.07903,0.913018 -4.73575,0.878147 -0.82734,-0.01741 -2.65625,-0.212217 -4.06425,-0.432899 z M 170.18,68.901407 c 0.231,-0.09244 0.50701,-0.08107 0.61334,0.02525 0.10633,0.106333 -0.0827,0.181965 -0.42,0.16807 -0.37278,-0.01536 -0.44861,-0.09118 -0.19334,-0.193331 z m 4.80001,0 c 0.23099,-0.09244 0.507,-0.08107 0.61333,0.02525 0.10633,0.106333 -0.0827,0.181965 -0.42,0.16807 -0.37278,-0.01536 -0.44861,-0.09118 -0.19333,-0.193331 z m 59.85918,-1.301405 c -0.39804,-0.507539 -0.38672,-0.518858 0.12082,-0.120819 0.53304,0.418038 0.70255,0.680819 0.43918,0.680819 -0.0665,0 -0.31845,-0.252 -0.56,-0.56 z m -5.39918,-2.988592 c -0.68921,-0.563738 -0.70276,-0.606832 -0.0978,-0.311165 0.38619,0.188758 0.79069,0.486426 0.89888,0.661478 0.28882,0.467328 0.0948,0.3825 -0.80106,-0.350313 z m -1.77884,-1.109063 c -0.59649,-0.477884 -0.59257,-0.483792 0.0988,-0.148739 0.396,0.191901 0.72,0.415843 0.72,0.497651 0,0.244871 -0.16596,0.174157 -0.81884,-0.348912 z m -32.80539,-1.662345 -0.77577,-0.88 0.88,0.775779 c 0.484,0.426682 0.88,0.822682 0.88,0.88 0,0.25097 -0.25914,0.04671 -0.98423,-0.775779 z m 31.38423,0.24 c -0.28842,-0.186387 -0.32789,-0.312157 -0.0989,-0.315101 0.20961,-0.0026 0.47011,0.139101 0.57889,0.315101 0.24553,0.397289 0.13475,0.397289 -0.48,0 z m -4.43755,-1.402695 c -0.69466,-0.385142 -0.70875,-0.438742 -0.16976,-0.645574 0.32329,-0.124054 0.47967,-0.11743 0.34752,0.01472 -0.13216,0.132154 0.0882,0.422662 0.48975,0.645574 0.40152,0.222909 0.58604,0.40529 0.41004,0.40529 -0.176,0 -0.6609,-0.189008 -1.07755,-0.420016 z m -1.32245,-0.837305 c 0.264,-0.170611 0.624,-0.310199 0.8,-0.310199 0.176,0 0.104,0.139588 -0.16,0.310199 -0.264,0.170611 -0.624,0.310198 -0.8,0.310198 -0.176,0 -0.104,-0.139587 0.16,-0.310198 z m -15.1,-4.058596 c 0.23099,-0.09244 0.507,-0.08107 0.61333,0.02525 0.10633,0.106333 -0.0827,0.181965 -0.42,0.168071 -0.37278,-0.01536 -0.44861,-0.09118 -0.19333,-0.193331 z m -2.34,-0.421404 c 0.352,-0.151261 0.928,-0.275018 1.28,-0.275018 h 0.64 l -0.64,0.275018 c -0.352,0.15126 -0.928,0.275017 -1.28,0.275017 h -0.64 z"
         id="path213" />
      <path
         style="fill:#2e2e2e;stroke-width:0.32"
         d="m 171.14,276.58141 c 0.231,-0.0924 0.50701,-0.0811 0.61334,0.0252 0.10633,0.10633 -0.0827,0.18197 -0.42,0.16807 -0.37278,-0.0154 -0.44861,-0.0912 -0.19334,-0.19333 z m 2.88001,0 c 0.23099,-0.0924 0.507,-0.0811 0.61333,0.0252 0.10633,0.10633 -0.0827,0.18197 -0.42,0.16807 -0.37278,-0.0154 -0.44861,-0.0912 -0.19333,-0.19333 z M 68.825266,174.21334 c 0.01536,-0.37278 0.09118,-0.44861 0.193331,-0.19333 0.09244,0.23099 0.08107,0.507 -0.02525,0.61333 -0.106336,0.10633 -0.181965,-0.0827 -0.16807,-0.42 z m 207.680004,0 c 0.0154,-0.37278 0.0912,-0.44861 0.19333,-0.19333 0.0924,0.23099 0.0811,0.507 -0.0252,0.61333 -0.10634,0.10633 -0.18197,-0.0827 -0.16808,-0.42 z m -207.680004,-2.88 c 0.01536,-0.37278 0.09118,-0.44861 0.193331,-0.19334 0.09244,0.231 0.08107,0.50701 -0.02525,0.61334 -0.106336,0.10633 -0.181965,-0.0827 -0.16807,-0.42 z m 207.680004,0 c 0.0154,-0.37278 0.0912,-0.44861 0.19333,-0.19334 0.0924,0.231 0.0811,0.50701 -0.0252,0.61334 -0.10634,0.10633 -0.18197,-0.0827 -0.16808,-0.42 z M 93.120003,87.559183 c 0,-0.06645 0.252,-0.318448 0.56,-0.56 0.507539,-0.398038 0.518857,-0.38672 0.120819,0.12082 -0.418038,0.53304 -0.680819,0.702553 -0.680819,0.43918 z M 100.64,86.080002 c 0.31856,-0.352 0.6512,-0.64 0.7392,-0.64 0.088,0 -0.10064,0.288 -0.4192,0.64 -0.31855,0.352001 -0.65119,0.640001 -0.73919,0.640001 -0.088,0 0.10064,-0.288 0.41919,-0.640001 z M 86.720003,76.999183 c 0,-0.06645 0.252,-0.318448 0.56,-0.56 0.507539,-0.398038 0.518857,-0.38672 0.120819,0.120819 -0.418039,0.53304 -0.680819,0.702554 -0.680819,0.439181 z m 7.52,-1.479181 c 0.318557,-0.352 0.651193,-0.64 0.739193,-0.64 0.088,0 -0.100636,0.288 -0.419193,0.64 -0.318557,0.352 -0.651194,0.64 -0.739194,0.64 -0.088,0 0.100637,-0.288 0.419194,-0.64 z M 226.50001,74.981407 c 0.23099,-0.09244 0.507,-0.08107 0.61333,0.02525 0.10633,0.106333 -0.0827,0.181965 -0.42,0.16807 -0.37278,-0.01536 -0.44861,-0.09118 -0.19333,-0.193331 z m 6.4,0 c 0.231,-0.09244 0.507,-0.08107 0.61333,0.02525 0.10633,0.106333 -0.0827,0.181965 -0.42,0.16807 -0.37278,-0.01536 -0.44861,-0.09118 -0.19333,-0.193331 z m -16.42,-2.021405 c -0.40341,-0.17335 -0.46256,-0.275017 -0.16,-0.275017 0.264,0 0.768,0.123756 1.12,0.275017 0.4034,0.173351 0.46255,0.275018 0.16,0.275018 -0.264,0 -0.768,-0.123757 -1.12,-0.275018 z m 10.08,-2.573552 c -2.57726,-0.436957 -7.7269,-1.646218 -7.59065,-1.782467 0.0645,-0.0645 1.79796,0.231254 3.85214,0.657225 5.0275,1.042544 8.29878,1.300368 10.55531,0.831914 1.00276,-0.208173 1.8232,-0.487184 1.8232,-0.620026 0,-0.132844 -0.36425,-0.583721 -0.80943,-1.001955 -0.44519,-0.41823 -0.73484,-0.954813 -0.64367,-1.1924 0.0912,-0.237587 0.0332,-0.350077 -0.12873,-0.249971 -0.16197,0.100106 -1.2491,-0.531568 -2.41583,-1.403715 -2.32371,-1.737008 -7.37175,-4.438496 -10.88234,-5.823744 -1.232,-0.486138 -2.00631,-0.892308 -1.72068,-0.902599 0.54161,-0.01952 3.00962,0.949143 4.51275,1.771184 0.47965,0.262311 0.95153,0.463472 1.04863,0.447024 0.36045,-0.06106 6.5593,3.317984 6.5593,3.575527 0,0.147155 0.18,0.231555 0.4,0.187555 0.22,-0.044 0.36172,0.106835 0.31493,0.33519 -0.0468,0.228355 0.10286,0.372355 0.33255,0.32 0.46597,-0.106214 3.23692,1.967079 2.97673,2.227264 -0.0909,0.09092 0.12815,0.577431 0.48683,1.08114 l 0.65213,0.915833 -0.90159,0.356791 c -1.21061,0.479081 -6.23822,0.640409 -8.42158,0.27023 z m -19.99774,-0.942784 c -0.11211,-0.181395 0.0163,-0.23504 0.30112,-0.125763 0.55437,0.212733 0.6558,0.442099 0.1955,0.442099 -0.16561,0 -0.38909,-0.142352 -0.49662,-0.316336 z M 171.14,68.901407 c 0.231,-0.09244 0.50701,-0.08107 0.61334,0.02525 0.10633,0.106333 -0.0827,0.181965 -0.42,0.16807 -0.37278,-0.01536 -0.44861,-0.09118 -0.19334,-0.193331 z m 2.88001,0 c 0.23099,-0.09244 0.507,-0.08107 0.61333,0.02525 0.10633,0.106333 -0.0827,0.181965 -0.42,0.16807 -0.37278,-0.01536 -0.44861,-0.09118 -0.19333,-0.193331 z m 42.14,-1.061405 c -0.40341,-0.17335 -0.46256,-0.275018 -0.16,-0.275018 0.264,0 0.768,0.123757 1.12,0.275018 0.4034,0.17335 0.46255,0.275018 0.16,0.275018 -0.264,0 -0.768,-0.123757 -1.12,-0.275018 z m -4,-1.386886 c -2.23934,-0.860871 -5.77789,-2.568407 -4.16,-2.007415 0.60154,0.208582 6.0168,2.374163 6.88,2.751338 1.64581,0.719139 -0.295,0.188323 -2.72,-0.743923 z m -13.80082,-1.733114 c -0.39804,-0.507539 -0.38672,-0.518858 0.12082,-0.120819 0.53304,0.418038 0.70255,0.680819 0.43918,0.680819 -0.0664,0 -0.31845,-0.252 -0.56,-0.56 z m -1.42959,-1.12 -0.60959,-0.72 0.72,0.609597 c 0.67662,0.57287 0.86567,0.830403 0.60959,0.830403 -0.0607,0 -0.38472,-0.324 -0.72,-0.72 z m 6.31319,-1.366439 c -1.74619,-0.998224 -3.64102,-2.441385 -5.40278,-4.114921 -1.35786,-1.289853 -1.64092,-1.907255 -1.04367,-2.276375 0.18353,-0.11343 0.23373,0.01974 0.11958,0.317235 -0.26325,0.68601 2.12957,2.959204 5.27929,5.015364 1.34069,0.875213 2.49924,1.652912 2.57454,1.728217 0.31221,0.312208 -0.21071,0.08292 -1.52696,-0.66952 z m 10.67722,-4.489366 c -1.232,-0.413568 -2.492,-0.759197 -2.8,-0.768067 -0.308,-0.0089 -0.56,-0.144964 -0.56,-0.302429 0,-0.307271 0.90568,-0.137898 4.08,0.763011 1.1,0.312195 2,0.69265 2,0.845459 0,0.362855 -0.0888,0.345293 -2.72,-0.537974 z m -4.47678,-1.429415 c 0.11055,-0.17887 0.33505,-0.242374 0.49889,-0.141113 0.44385,0.274313 0.36109,0.466333 -0.201,0.466333 -0.27439,0 -0.40844,-0.146349 -0.29789,-0.32522 z m -1.92322,-0.31478 c -0.10878,-0.176 0.0987,-0.32 0.46111,-0.32 0.36239,0 0.65889,0.144 0.65889,0.32 0,0.176 -0.2075,0.32 -0.46112,0.32 -0.25361,0 -0.55011,-0.144 -0.65888,-0.32 z m -1.76,-0.32 c -0.39024,-0.252189 -0.34888,-0.311117 0.22111,-0.315101 0.38561,-0.0026 0.79011,0.139101 0.89889,0.315101 0.25179,0.40742 -0.48957,0.40742 -1.12,0 z m -8,-0.32 c 0,-0.176 0.22449,-0.32 0.49888,-0.32 0.27439,0 0.40989,0.144 0.30112,0.32 -0.10878,0.176 -0.33328,0.32 -0.49889,0.32 -0.16561,0 -0.30111,-0.144 -0.30111,-0.32 z m 6.32,0.10807 c 0.22,-0.08877 0.58,-0.08877 0.8,0 0.22,0.08877 0.04,0.161405 -0.4,0.161405 -0.44,0 -0.62,-0.07263 -0.4,-0.161405 z m -4,-0.341181 c 0.66,-0.06904 1.74,-0.06904 2.4,0 0.66,0.06904 0.12,0.125523 -1.2,0.125523 -1.32,0 -1.86,-0.05648 -1.2,-0.125523 z"
         id="path211" />
      <path
         style="fill:#000000;stroke-width:0.32"
         d="m 261.28001,298.11525 c -1.37076,-0.62441 -2.6172,-2.0634 -3.18757,-3.68001 -0.83097,-2.35522 -0.64512,-3.47504 1.15222,-6.94241 3.22116,-6.21419 6.29575,-12.5069 7.88242,-16.13282 4.25742,-9.72927 7.87989,-19.05569 7.58606,-19.53111 -0.51332,-0.83058 -18.6711,-7.12245 -23.96398,-8.30379 l -1.57086,-0.35061 -3.70914,3.63954 c -16.76361,16.44898 -37.79093,26.4593 -61.30915,29.18699 -5.93935,0.68885 -16.78066,0.68885 -22.72001,0 -23.90269,-2.77228 -45.66416,-13.31011 -62.393994,-30.21383 -1.756698,-1.77496 -3.305757,-3.22719 -3.442358,-3.22719 -0.634964,0 -12.172212,8.41983 -18.163646,13.25574 -3.438765,2.77556 -14.535047,10.76008 -15.130003,10.88705 -0.2145,0.0458 -0.925373,0.32038 -1.579719,0.61022 -1.443126,0.63923 -4.059069,0.68372 -5.460557,0.0929 -4.241811,-1.7883 -10.928794,-10.82954 -17.42954,-23.56588 -1.931388,-3.784 -3.618096,-6.93437 -3.74824,-7.00082 -0.298924,-0.15262 -7.669416,5.66035 -11.66946,9.2035 -1.665742,1.47547 -3.499615,2.87947 -4.075274,3.12 -2.642122,1.10395 -6.198539,0.0936 -7.709997,-2.19039 -1.19898,-1.81178 -1.3634738,-4.49626 -0.397753,-6.49118 0.392593,-0.81098 0.635756,-1.55257 0.540365,-1.64795 -0.22164,-0.22165 3.450131,-3.43442 9.478595,-8.29372 13.249032,-10.6795 13.741435,-11.01944 15.96147,-11.01944 1.908435,0 3.353866,0.58522 4.447235,1.80059 1.331895,1.4805 3.259824,4.80897 5.073671,8.75941 3.341197,7.27692 8.365511,16.48918 10.788595,19.7813 l 2.408065,3.27171 2.611273,-1.82012 c 3.285123,-2.28982 7.36745,-5.35523 11.891274,-8.92911 1.936,-1.52947 5.795632,-4.44562 8.576964,-6.48032 2.781328,-2.03471 5.107501,-3.78137 5.169267,-3.88147 0.06177,-0.1001 -0.966208,-1.90999 -2.284391,-4.02199 -6.648301,-10.65194 -11.659488,-23.27419 -13.975968,-35.20288 -2.902234,-14.945 -2.44231,-31.38297 1.277654,-45.66443 1.083703,-4.16048 1.082052,-4.13347 0.310887,-5.08379 -6.292067,-7.75383 -12.096647,-13.80118 -18.434413,-19.20537 -3.31594,-2.8275 -10.588769,-8.36144 -10.76162,-8.18859 -0.32783,0.32783 -3.287606,7.89854 -4.52919,11.58505 -1.665524,4.94528 -3.706861,13.19827 -4.661869,18.84761 l -0.751856,4.4476 0.992268,1.92397 c 0.896362,1.73801 0.992109,2.20507 0.99065,4.8324 -0.0013,2.30753 -0.145363,3.2203 -0.69737,4.41794 -0.974822,2.11499 -3.377422,4.56364 -5.501162,5.60659 -1.560593,0.7664 -2.182698,0.88389 -4.679852,0.88389 -2.497154,0 -3.11926,-0.11749 -4.679853,-0.88389 -2.123739,-1.04295 -4.526339,-3.4916 -5.501163,-5.60659 -0.988002,-2.14359 -0.991012,-6.62914 -0.0059,-8.76573 0.860611,-1.86653 3.000825,-4.21744 4.79861,-5.27101 1.118945,-0.65575 1.402191,-1.01636 1.553131,-1.97739 1.815807,-11.56114 5.436323,-23.75101 10.138562,-34.13539 0.876657,-1.936 2.147284,-4.94682 2.823617,-6.69072 1.305718,-3.36676 1.908233,-4.09609 4.4108,-5.339207 1.967299,-0.977232 4.625283,-0.760493 6.478234,0.528256 0.744659,0.51792 1.881785,1.301671 2.526944,1.741671 2.217059,1.51204 12.660019,9.7177 15.85416,12.45756 4.726986,4.05469 9.819479,9.04018 12.964497,12.69208 l 2.781363,3.22963 1.808317,-3.63281 C 83.81318,118.75252 88.032371,112.40787 93.482924,105.92 110.54728,85.608079 134.69723,72.700658 161.44,69.598984 c 5.93935,-0.688854 16.78066,-0.688854 22.72001,0 32.07236,3.719809 60.23094,21.568561 77.06005,48.845716 4.20554,6.81649 9.16295,17.81293 10.96344,24.31897 l 0.5877,2.12367 2.0944,1.02978 c 3.40297,1.67319 10.81017,6.37685 23.74752,15.07997 3.10921,2.0916 5.7936,3.80291 5.96531,3.80291 0.38223,0 0.33419,0.1912 2.48109,-9.87323 1.49887,-7.02656 3.24659,-13.93055 4.73998,-18.72428 0.34806,-1.11727 0.30657,-1.39703 -0.42699,-2.87928 -0.68825,-1.39071 -0.8125,-2.08231 -0.8125,-4.52249 0,-2.49794 0.11745,-3.11987 0.88389,-4.68057 1.04295,-2.12374 3.4916,-4.52634 5.6066,-5.50116 2.15032,-0.9911 6.62871,-0.9911 8.77901,0 2.11501,0.97482 4.56365,3.37742 5.6066,5.50116 0.7664,1.5606 0.8839,2.1827 0.8839,4.67985 0,2.49716 -0.1175,3.11926 -0.8839,4.67986 -1.03642,2.11046 -3.50845,4.54503 -5.51716,5.43358 -1.22259,0.54081 -1.46924,0.81581 -1.7736,1.97737 -0.19443,0.74205 -0.71942,2.56356 -1.16665,4.04779 -0.44723,1.48422 -1.7296,6.88422 -2.84967,12 -1.12007,5.11577 -2.38102,10.5254 -2.80211,12.0214 -0.91509,3.25103 -1.46943,5.44753 -1.83143,7.25676 -0.54275,2.71261 -1.08467,3.52369 -2.94113,4.40193 -3.08047,1.4573 -5.90445,0.97033 -10.47435,-1.80622 -2.3353,-1.41886 -8.47817,-5.43593 -13.44,-8.78896 -1.81081,-1.22368 -11.52751,-7.58235 -12.12179,-7.93257 -0.36789,-0.21681 -0.4029,0.15461 -0.20931,2.22052 0.40565,4.3288 0.23734,15.11565 -0.30969,19.84855 -1.79925,15.56723 -6.93273,30.36483 -15.0786,43.46507 -1.29834,2.088 -2.36061,3.84298 -2.36061,3.89997 0,0.057 1.404,0.5553 3.12,1.10737 8.74431,2.81319 23.75623,8.76986 23.76396,9.42945 0.002,0.18598 0.4883,0.65174 1.08027,1.03504 1.57731,1.02129 2.36845,2.94064 2.62294,6.36335 0.19234,2.5869 0.13872,3.07094 -0.49621,4.48 -0.39151,0.86886 -1.18796,2.87575 -1.76988,4.45975 -2.45546,6.68374 -7.19865,17.71738 -10.42042,24.24 l -2.17332,4.4 h 10.49031 10.49032 l 1.45032,1.1074 c 2.12835,1.62512 2.63882,3.53987 1.67328,6.27648 -0.6199,1.757 -1.13609,2.31697 -2.98238,3.23536 l -1.48919,0.74076 -15.84,0.0763 c -12.83569,0.0618 -16.02208,-0.007 -16.8,-0.36103 z m -76.16,-30.54996 c 10.22396,-1.57336 18.20002,-3.89628 27.28,-7.94494 2.09304,-0.93326 3.28,-1.63965 3.28,-1.952 0,-0.26921 -9.64652,-19.44263 -21.4367,-42.60759 l -21.4367,-42.11811 16.9567,-44.27507 c 9.32618,-24.35128 16.9567,-44.451392 16.9567,-44.666909 0,-1.172662 -13.05286,-4.719568 -22.56,-6.130317 -5.36569,-0.796205 -17.35432,-0.796205 -22.72001,0 -20.88266,3.098743 -38.06839,11.062263 -53.45166,24.768406 -9.505598,8.46928 -19.010069,22.47762 -24.082923,35.49507 -8.324756,21.36214 -8.887165,43.14281 -1.671379,64.72833 5.670838,16.96392 16.732768,33.09823 29.925962,43.64831 15.41412,12.32608 32.69695,19.42685 52.64,21.62752 4.35914,0.48102 15.51604,0.16657 20.32001,-0.5727 z M 94.320003,89.929615 c -0.836,-0.739203 -1.52,-1.459478 -1.52,-1.600611 0,-0.68583 6.265494,-6.748816 9.863547,-9.544749 4.41798,-3.433069 8.55616,-5.90887 16.69645,-9.989207 4.42153,-2.216294 12.66609,-5.435046 13.92143,-5.435046 0.19145,0 0.64431,0.911117 1.00637,2.024707 l 0.65828,2.024707 -4.19304,1.360058 c -4.28113,1.38863 -11.11914,4.641549 -18.11304,8.61657 -4.82073,2.739891 -9.98837,6.76096 -13.759997,10.706995 l -3.04,3.18058 z m -6.4,-10.56 c -0.836,-0.739203 -1.520001,-1.459478 -1.520001,-1.600611 0,-0.685831 6.265495,-6.748816 9.863553,-9.544749 4.417975,-3.433069 8.556155,-5.908871 16.696445,-9.989207 4.42153,-2.216294 12.66609,-5.435046 13.92143,-5.435046 0.19145,0 0.64431,0.911116 1.00637,2.024707 l 0.65828,2.024707 -4.19304,1.360058 c -4.28113,1.38863 -11.11914,4.641549 -18.11304,8.61657 -4.82073,2.739891 -9.988372,6.76096 -13.759997,10.706995 l -3.04,3.180579 z M 227.20001,75.107129 c -0.088,-0.0913 -0.88,-0.244791 -1.76,-0.341092 -2.78222,-0.304457 -4.09417,-0.568931 -6.56,-1.322406 -1.32,-0.403347 -3.09028,-0.896823 -3.93396,-1.096615 -2.98968,-0.707987 -13.92791,-5.456204 -14.25271,-6.187014 -0.0587,-0.132 -0.24498,-0.24 -0.41402,-0.24 -0.3372,0 -3.89652,-2.859015 -4.92226,-3.953786 -0.95403,-1.018243 -1.75705,-2.356285 -1.75705,-2.927702 0,-0.561421 1.13221,-2.909405 1.51786,-3.147751 0.13585,-0.08396 0.82191,-0.240358 1.52457,-0.347549 1.00003,-0.15255 1.12115,-0.126342 0.55757,0.120637 -1.03725,0.454554 -0.89744,0.993031 0.64,2.464922 2.30034,2.202282 4.71194,3.800518 8.85108,5.865878 7.32737,3.656228 18.23112,6.719655 23.93317,6.724065 1.83716,0.0013 4.80346,-0.5505 5.04316,-0.938352 0.0842,-0.136311 -0.37982,-0.880656 -1.03126,-1.6541 l -1.18444,-1.406262 1.37775,1.12 c 0.75776,0.616 1.60195,1.492051 1.87597,1.946784 0.46648,0.774109 0.44265,0.950621 -0.37414,2.770662 -0.56747,1.264487 -1.11333,2.016148 -1.56183,2.15065 -0.90824,0.272384 -7.36354,0.612682 -7.56946,0.399031 z M 82.12087,68.965173 80.241734,67.223032 83.231228,63.983259 C 84.88966,62.185983 88.005996,59.353947 90.230361,57.622651 97.114873,52.264213 109.6549,45.54084 117.12,43.205694 c 2.376,-0.743235 4.43662,-1.372563 4.57917,-1.398512 0.22369,-0.04073 1.90842,4.625402 1.72758,4.784839 -0.0367,0.03237 -2.01075,0.667644 -4.38675,1.411728 -4.6536,1.45735 -9.2195,3.598742 -16.8,7.879145 -5.936874,3.352317 -10.861793,7.11121 -15.039997,11.479124 l -3.200001,3.345296 z m 148.87832,-3.925171 c -0.40625,-0.518003 -0.39119,-0.524794 0.20082,-0.09055 0.352,0.258199 0.7,0.510199 0.77333,0.56 0.0733,0.0498 -0.017,0.09055 -0.20082,0.09055 -0.18378,0 -0.53178,-0.252 -0.77333,-0.56 z m -14.09918,-6.698596 c 0.23099,-0.09244 0.507,-0.08107 0.61333,0.02525 0.10633,0.106333 -0.0827,0.181965 -0.42,0.168071 -0.37278,-0.01536 -0.44861,-0.09118 -0.19333,-0.193331 z m -8,-2.24 c 0.23099,-0.09244 0.507,-0.08107 0.61333,0.02525 0.10633,0.106333 -0.0827,0.181965 -0.42,0.168071 -0.37278,-0.01536 -0.44861,-0.09118 -0.19333,-0.193331 z"
         id="path209" />
    </g>
  </g>
</svg>
